<svg width="400" height="400" viewBox="0 0 400 400" xmlns="http://www.w3.org/2000/svg">
  <defs>
    <mask id="keyhole-mask">
      <rect width="400" height="400" fill="white"/>
      <!-- Keyhole cutout -->
      <circle cx="200" cy="148" r="52" fill="black"/>
      <path d="M160 172 L154 328 L246 328 L240 172 Z" fill="black"/>
    </mask>
  </defs>

  <g mask="url(#keyhole-mask)">
    <!-- Outer ring -->
    <circle cx="200" cy="200" r="190" fill="#213446"/>
    <circle cx="200" cy="200" r="158" fill="white"/>

    <!-- Inner ring around keyhole -->
    <circle cx="200" cy="200" r="100" fill="#213446"/>
    <circle cx="200" cy="200" r="68" fill="white"/>

    <!-- Cardinal direction gaps - cut through outer ring -->
    <rect x="168" y="0" width="64" height="42" fill="white"/>
    <rect x="168" y="358" width="64" height="42" fill="white"/>
    <rect x="0" y="168" width="42" height="64" fill="white"/>
    <rect x="358" y="168" width="42" height="64" fill="white"/>

    <!-- Greek key spirals - outer layer (thickness ~22px) -->
    <!-- Top-left outer -->
    <path d="M42 168 L42 42 L168 42 L168 64 L64 64 L64 168 Z" fill="#213446"/>
    <!-- Top-left inner -->
    <path d="M86 168 L86 86 L168 86 L168 108 L108 108 L108 168 Z" fill="#213446"/>

    <!-- Top-right outer -->
    <path d="M358 168 L358 42 L232 42 L232 64 L336 64 L336 168 Z" fill="#213446"/>
    <!-- Top-right inner -->
    <path d="M314 168 L314 86 L232 86 L232 108 L292 108 L292 168 Z" fill="#213446"/>

    <!-- Bottom-left outer -->
    <path d="M42 232 L42 358 L168 358 L168 336 L64 336 L64 232 Z" fill="#213446"/>
    <!-- Bottom-left inner -->
    <path d="M86 232 L86 314 L168 314 L168 292 L108 292 L108 232 Z" fill="#213446"/>

    <!-- Bottom-right outer -->
    <path d="M358 232 L358 358 L232 358 L232 336 L336 336 L336 232 Z" fill="#213446"/>
    <!-- Bottom-right inner -->
    <path d="M314 232 L314 314 L232 314 L232 292 L292 292 L292 232 Z" fill="#213446"/>
  </g>

  <!-- Golden Gate Bridge -->
  <g fill="#C2A570" stroke="#C2A570">
    <!-- Left tower -->
    <rect x="152" y="42" width="14" height="64"/>
    <!-- Right tower -->
    <rect x="234" y="42" width="14" height="64"/>

    <!-- Main suspension cable -->
    <path d="M152 47 Q200 92 248 47" stroke-width="5" fill="none"/>

    <!-- Bridge deck -->
    <rect x="147" y="99" width="106" height="8"/>

    <!-- Vertical suspender cables -->
    <line x1="168" y1="57" x2="168" y2="99" stroke-width="3"/>
    <line x1="182" y1="69" x2="182" y2="99" stroke-width="3"/>
    <line x1="196" y1="79" x2="196" y2="99" stroke-width="3"/>
    <line x1="204" y1="79" x2="204" y2="99" stroke-width="3"/>
    <line x1="218" y1="69" x2="218" y2="99" stroke-width="3"/>
    <line x1="232" y1="57" x2="232" y2="99" stroke-width="3"/>
  </g>
</svg>